<mxfile host="Electron" modified="2023-12-15T18:38:17.522Z" agent="Mozilla/5.0 (Macintosh; Intel Mac OS X 10_15_7) AppleWebKit/537.36 (KHTML, like Gecko) draw.io/22.0.3 Chrome/114.0.5735.289 Electron/25.8.4 Safari/537.36" etag="_xdzfgyqnjVrCeNc3eM9" version="22.0.3" type="device" pages="4">
  <diagram name="Classdiagram" id="HmVMkl8auX8eoj3Dc1uf">
    <mxGraphModel dx="866" dy="1670" grid="1" gridSize="10" guides="1" tooltips="1" connect="1" arrows="1" fold="1" page="1" pageScale="1" pageWidth="850" pageHeight="1100" math="0" shadow="0">
      <root>
        <mxCell id="0" />
        <mxCell id="1" parent="0" />
        <mxCell id="LkfMRGAHSm8wUyFjsSAr-1" value="Product" style="swimlane;fontStyle=1;align=center;verticalAlign=top;childLayout=stackLayout;horizontal=1;startSize=26;horizontalStack=0;resizeParent=1;resizeParentMax=0;resizeLast=0;collapsible=1;marginBottom=0;whiteSpace=wrap;html=1;" vertex="1" parent="1">
          <mxGeometry x="320" y="88.02000000000001" width="160" height="112" as="geometry" />
        </mxCell>
        <mxCell id="LkfMRGAHSm8wUyFjsSAr-19" value="+ rate: attribute" style="text;strokeColor=none;fillColor=none;align=left;verticalAlign=top;spacingLeft=4;spacingRight=4;overflow=hidden;rotatable=0;points=[[0,0.5],[1,0.5]];portConstraint=eastwest;whiteSpace=wrap;html=1;" vertex="1" parent="LkfMRGAHSm8wUyFjsSAr-1">
          <mxGeometry y="26" width="160" height="26" as="geometry" />
        </mxCell>
        <mxCell id="LkfMRGAHSm8wUyFjsSAr-17" value="+ name: attribute" style="text;strokeColor=none;fillColor=none;align=left;verticalAlign=top;spacingLeft=4;spacingRight=4;overflow=hidden;rotatable=0;points=[[0,0.5],[1,0.5]];portConstraint=eastwest;whiteSpace=wrap;html=1;" vertex="1" parent="LkfMRGAHSm8wUyFjsSAr-1">
          <mxGeometry y="52" width="160" height="26" as="geometry" />
        </mxCell>
        <mxCell id="LkfMRGAHSm8wUyFjsSAr-85" value="+ ProductType: enum" style="text;strokeColor=none;fillColor=none;align=left;verticalAlign=top;spacingLeft=4;spacingRight=4;overflow=hidden;rotatable=0;points=[[0,0.5],[1,0.5]];portConstraint=eastwest;whiteSpace=wrap;html=1;" vertex="1" parent="LkfMRGAHSm8wUyFjsSAr-1">
          <mxGeometry y="78" width="160" height="26" as="geometry" />
        </mxCell>
        <mxCell id="LkfMRGAHSm8wUyFjsSAr-3" value="" style="line;strokeWidth=1;fillColor=none;align=left;verticalAlign=middle;spacingTop=-1;spacingLeft=3;spacingRight=3;rotatable=0;labelPosition=right;points=[];portConstraint=eastwest;strokeColor=inherit;" vertex="1" parent="LkfMRGAHSm8wUyFjsSAr-1">
          <mxGeometry y="104" width="160" height="8" as="geometry" />
        </mxCell>
        <mxCell id="LkfMRGAHSm8wUyFjsSAr-24" value="Reservations" style="swimlane;fontStyle=0;childLayout=stackLayout;horizontal=1;startSize=26;fillColor=none;horizontalStack=0;resizeParent=1;resizeParentMax=0;resizeLast=0;collapsible=1;marginBottom=0;whiteSpace=wrap;html=1;" vertex="1" parent="1">
          <mxGeometry x="555" y="-270" width="190" height="108" as="geometry" />
        </mxCell>
        <mxCell id="LkfMRGAHSm8wUyFjsSAr-25" value="+ items: list&amp;lt;item&amp;gt;" style="text;strokeColor=none;fillColor=none;align=left;verticalAlign=top;spacingLeft=4;spacingRight=4;overflow=hidden;rotatable=0;points=[[0,0.5],[1,0.5]];portConstraint=eastwest;whiteSpace=wrap;html=1;" vertex="1" parent="LkfMRGAHSm8wUyFjsSAr-24">
          <mxGeometry y="26" width="190" height="26" as="geometry" />
        </mxCell>
        <mxCell id="OhgvT2ZDU_lHJPQLszx6-1" value="&amp;nbsp;+ Status" style="text;html=1;strokeColor=none;fillColor=none;align=left;verticalAlign=middle;whiteSpace=wrap;rounded=0;" vertex="1" parent="LkfMRGAHSm8wUyFjsSAr-24">
          <mxGeometry y="52" width="190" height="30" as="geometry" />
        </mxCell>
        <mxCell id="LkfMRGAHSm8wUyFjsSAr-26" value="+ customer: Customer" style="text;strokeColor=none;fillColor=none;align=left;verticalAlign=top;spacingLeft=4;spacingRight=4;overflow=hidden;rotatable=0;points=[[0,0.5],[1,0.5]];portConstraint=eastwest;whiteSpace=wrap;html=1;" vertex="1" parent="LkfMRGAHSm8wUyFjsSAr-24">
          <mxGeometry y="82" width="190" height="26" as="geometry" />
        </mxCell>
        <mxCell id="LkfMRGAHSm8wUyFjsSAr-35" style="edgeStyle=orthogonalEdgeStyle;rounded=0;orthogonalLoop=1;jettySize=auto;html=1;entryX=0;entryY=0.5;entryDx=0;entryDy=0;startArrow=classic;startFill=1;endArrow=none;endFill=0;" edge="1" parent="1" source="LkfMRGAHSm8wUyFjsSAr-31" target="LkfMRGAHSm8wUyFjsSAr-25">
          <mxGeometry relative="1" as="geometry" />
        </mxCell>
        <mxCell id="LkfMRGAHSm8wUyFjsSAr-36" value="1" style="edgeLabel;html=1;align=center;verticalAlign=middle;resizable=0;points=[];" vertex="1" connectable="0" parent="LkfMRGAHSm8wUyFjsSAr-35">
          <mxGeometry x="-0.9084" y="3" relative="1" as="geometry">
            <mxPoint y="9" as="offset" />
          </mxGeometry>
        </mxCell>
        <mxCell id="LkfMRGAHSm8wUyFjsSAr-37" value="*" style="edgeLabel;html=1;align=center;verticalAlign=middle;resizable=0;points=[];" vertex="1" connectable="0" parent="LkfMRGAHSm8wUyFjsSAr-35">
          <mxGeometry x="0.8397" y="3" relative="1" as="geometry">
            <mxPoint as="offset" />
          </mxGeometry>
        </mxCell>
        <mxCell id="LkfMRGAHSm8wUyFjsSAr-80" style="rounded=0;orthogonalLoop=1;jettySize=auto;html=1;entryX=0;entryY=0.5;entryDx=0;entryDy=0;endArrow=none;endFill=0;" edge="1" parent="1" source="LkfMRGAHSm8wUyFjsSAr-31" target="LkfMRGAHSm8wUyFjsSAr-77">
          <mxGeometry relative="1" as="geometry" />
        </mxCell>
        <mxCell id="LkfMRGAHSm8wUyFjsSAr-81" value="1" style="edgeLabel;html=1;align=center;verticalAlign=middle;resizable=0;points=[];" vertex="1" connectable="0" parent="LkfMRGAHSm8wUyFjsSAr-80">
          <mxGeometry x="-0.8077" relative="1" as="geometry">
            <mxPoint as="offset" />
          </mxGeometry>
        </mxCell>
        <mxCell id="LkfMRGAHSm8wUyFjsSAr-82" value="1" style="edgeLabel;html=1;align=center;verticalAlign=middle;resizable=0;points=[];" vertex="1" connectable="0" parent="LkfMRGAHSm8wUyFjsSAr-80">
          <mxGeometry x="0.7291" y="-3" relative="1" as="geometry">
            <mxPoint as="offset" />
          </mxGeometry>
        </mxCell>
        <mxCell id="LkfMRGAHSm8wUyFjsSAr-31" value="Customer" style="swimlane;fontStyle=0;childLayout=stackLayout;horizontal=1;startSize=26;fillColor=none;horizontalStack=0;resizeParent=1;resizeParentMax=0;resizeLast=0;collapsible=1;marginBottom=0;whiteSpace=wrap;html=1;" vertex="1" parent="1">
          <mxGeometry x="310" y="-390" width="180" height="78" as="geometry" />
        </mxCell>
        <mxCell id="LkfMRGAHSm8wUyFjsSAr-33" value="+ name: type" style="text;strokeColor=none;fillColor=none;align=left;verticalAlign=top;spacingLeft=4;spacingRight=4;overflow=hidden;rotatable=0;points=[[0,0.5],[1,0.5]];portConstraint=eastwest;whiteSpace=wrap;html=1;" vertex="1" parent="LkfMRGAHSm8wUyFjsSAr-31">
          <mxGeometry y="26" width="180" height="26" as="geometry" />
        </mxCell>
        <mxCell id="LkfMRGAHSm8wUyFjsSAr-48" value="+ physicalAdrress: attribute" style="text;strokeColor=none;fillColor=none;align=left;verticalAlign=top;spacingLeft=4;spacingRight=4;overflow=hidden;rotatable=0;points=[[0,0.5],[1,0.5]];portConstraint=eastwest;whiteSpace=wrap;html=1;" vertex="1" parent="LkfMRGAHSm8wUyFjsSAr-31">
          <mxGeometry y="52" width="180" height="26" as="geometry" />
        </mxCell>
        <mxCell id="LkfMRGAHSm8wUyFjsSAr-45" style="edgeStyle=orthogonalEdgeStyle;rounded=0;orthogonalLoop=1;jettySize=auto;html=1;entryX=0;entryY=0.5;entryDx=0;entryDy=0;endArrow=none;endFill=0;" edge="1" parent="1" source="LkfMRGAHSm8wUyFjsSAr-38" target="LkfMRGAHSm8wUyFjsSAr-26">
          <mxGeometry relative="1" as="geometry" />
        </mxCell>
        <mxCell id="LkfMRGAHSm8wUyFjsSAr-46" value="1..*" style="edgeLabel;html=1;align=center;verticalAlign=middle;resizable=0;points=[];" vertex="1" connectable="0" parent="LkfMRGAHSm8wUyFjsSAr-45">
          <mxGeometry x="-0.9043" y="-1" relative="1" as="geometry">
            <mxPoint y="-5" as="offset" />
          </mxGeometry>
        </mxCell>
        <mxCell id="LkfMRGAHSm8wUyFjsSAr-47" value="1" style="edgeLabel;html=1;align=center;verticalAlign=middle;resizable=0;points=[];" vertex="1" connectable="0" parent="LkfMRGAHSm8wUyFjsSAr-45">
          <mxGeometry x="0.8348" relative="1" as="geometry">
            <mxPoint as="offset" />
          </mxGeometry>
        </mxCell>
        <mxCell id="LkfMRGAHSm8wUyFjsSAr-38" value="item" style="swimlane;fontStyle=0;childLayout=stackLayout;horizontal=1;startSize=26;fillColor=none;horizontalStack=0;resizeParent=1;resizeParentMax=0;resizeLast=0;collapsible=1;marginBottom=0;whiteSpace=wrap;html=1;" vertex="1" parent="1">
          <mxGeometry x="330" y="-130" width="140" height="104" as="geometry" />
        </mxCell>
        <mxCell id="LkfMRGAHSm8wUyFjsSAr-39" value="+ product: Product" style="text;strokeColor=none;fillColor=none;align=left;verticalAlign=top;spacingLeft=4;spacingRight=4;overflow=hidden;rotatable=0;points=[[0,0.5],[1,0.5]];portConstraint=eastwest;whiteSpace=wrap;html=1;" vertex="1" parent="LkfMRGAHSm8wUyFjsSAr-38">
          <mxGeometry y="26" width="140" height="26" as="geometry" />
        </mxCell>
        <mxCell id="LkfMRGAHSm8wUyFjsSAr-84" value="+ check-in: date" style="text;strokeColor=none;fillColor=none;align=left;verticalAlign=top;spacingLeft=4;spacingRight=4;overflow=hidden;rotatable=0;points=[[0,0.5],[1,0.5]];portConstraint=eastwest;whiteSpace=wrap;html=1;" vertex="1" parent="LkfMRGAHSm8wUyFjsSAr-38">
          <mxGeometry y="52" width="140" height="26" as="geometry" />
        </mxCell>
        <mxCell id="LkfMRGAHSm8wUyFjsSAr-41" value="+ rate: number" style="text;strokeColor=none;fillColor=none;align=left;verticalAlign=top;spacingLeft=4;spacingRight=4;overflow=hidden;rotatable=0;points=[[0,0.5],[1,0.5]];portConstraint=eastwest;whiteSpace=wrap;html=1;" vertex="1" parent="LkfMRGAHSm8wUyFjsSAr-38">
          <mxGeometry y="78" width="140" height="26" as="geometry" />
        </mxCell>
        <mxCell id="LkfMRGAHSm8wUyFjsSAr-42" style="rounded=0;orthogonalLoop=1;jettySize=auto;html=1;entryX=0.507;entryY=1;entryDx=0;entryDy=0;entryPerimeter=0;startArrow=classic;startFill=1;endArrow=none;endFill=0;" edge="1" parent="1" source="LkfMRGAHSm8wUyFjsSAr-1" target="LkfMRGAHSm8wUyFjsSAr-41">
          <mxGeometry relative="1" as="geometry" />
        </mxCell>
        <mxCell id="LkfMRGAHSm8wUyFjsSAr-43" value="1" style="edgeLabel;html=1;align=center;verticalAlign=middle;resizable=0;points=[];" vertex="1" connectable="0" parent="LkfMRGAHSm8wUyFjsSAr-42">
          <mxGeometry x="-0.7765" y="2" relative="1" as="geometry">
            <mxPoint x="12" as="offset" />
          </mxGeometry>
        </mxCell>
        <mxCell id="LkfMRGAHSm8wUyFjsSAr-44" value="*" style="edgeLabel;html=1;align=center;verticalAlign=middle;resizable=0;points=[];" vertex="1" connectable="0" parent="LkfMRGAHSm8wUyFjsSAr-42">
          <mxGeometry x="0.7764" y="-1" relative="1" as="geometry">
            <mxPoint x="10" y="8" as="offset" />
          </mxGeometry>
        </mxCell>
        <mxCell id="LkfMRGAHSm8wUyFjsSAr-49" value="CustomerAddress" style="swimlane;fontStyle=0;childLayout=stackLayout;horizontal=1;startSize=26;fillColor=none;horizontalStack=0;resizeParent=1;resizeParentMax=0;resizeLast=0;collapsible=1;marginBottom=0;whiteSpace=wrap;html=1;" vertex="1" parent="1">
          <mxGeometry x="100" y="-373" width="140" height="78" as="geometry" />
        </mxCell>
        <mxCell id="LkfMRGAHSm8wUyFjsSAr-50" value="+ type: string" style="text;strokeColor=none;fillColor=none;align=left;verticalAlign=top;spacingLeft=4;spacingRight=4;overflow=hidden;rotatable=0;points=[[0,0.5],[1,0.5]];portConstraint=eastwest;whiteSpace=wrap;html=1;" vertex="1" parent="LkfMRGAHSm8wUyFjsSAr-49">
          <mxGeometry y="26" width="140" height="26" as="geometry" />
        </mxCell>
        <mxCell id="LkfMRGAHSm8wUyFjsSAr-51" value="+ state: state" style="text;strokeColor=none;fillColor=none;align=left;verticalAlign=top;spacingLeft=4;spacingRight=4;overflow=hidden;rotatable=0;points=[[0,0.5],[1,0.5]];portConstraint=eastwest;whiteSpace=wrap;html=1;" vertex="1" parent="LkfMRGAHSm8wUyFjsSAr-49">
          <mxGeometry y="52" width="140" height="26" as="geometry" />
        </mxCell>
        <mxCell id="LkfMRGAHSm8wUyFjsSAr-53" value="state" style="swimlane;fontStyle=0;childLayout=stackLayout;horizontal=1;startSize=26;fillColor=none;horizontalStack=0;resizeParent=1;resizeParentMax=0;resizeLast=0;collapsible=1;marginBottom=0;whiteSpace=wrap;html=1;" vertex="1" parent="1">
          <mxGeometry x="90" y="-223" width="140" height="78" as="geometry" />
        </mxCell>
        <mxCell id="LkfMRGAHSm8wUyFjsSAr-56" value="+ name: type" style="text;strokeColor=none;fillColor=none;align=left;verticalAlign=top;spacingLeft=4;spacingRight=4;overflow=hidden;rotatable=0;points=[[0,0.5],[1,0.5]];portConstraint=eastwest;whiteSpace=wrap;html=1;" vertex="1" parent="LkfMRGAHSm8wUyFjsSAr-53">
          <mxGeometry y="26" width="140" height="26" as="geometry" />
        </mxCell>
        <mxCell id="LkfMRGAHSm8wUyFjsSAr-65" value="+ country: Country" style="text;strokeColor=none;fillColor=none;align=left;verticalAlign=top;spacingLeft=4;spacingRight=4;overflow=hidden;rotatable=0;points=[[0,0.5],[1,0.5]];portConstraint=eastwest;whiteSpace=wrap;html=1;" vertex="1" parent="LkfMRGAHSm8wUyFjsSAr-53">
          <mxGeometry y="52" width="140" height="26" as="geometry" />
        </mxCell>
        <mxCell id="LkfMRGAHSm8wUyFjsSAr-58" style="rounded=0;orthogonalLoop=1;jettySize=auto;html=1;entryX=0.429;entryY=1.077;entryDx=0;entryDy=0;entryPerimeter=0;startArrow=classic;startFill=1;endArrow=none;endFill=0;" edge="1" parent="1" source="LkfMRGAHSm8wUyFjsSAr-53" target="LkfMRGAHSm8wUyFjsSAr-51">
          <mxGeometry relative="1" as="geometry" />
        </mxCell>
        <mxCell id="LkfMRGAHSm8wUyFjsSAr-59" value="1" style="edgeLabel;html=1;align=center;verticalAlign=middle;resizable=0;points=[];" vertex="1" connectable="0" parent="LkfMRGAHSm8wUyFjsSAr-58">
          <mxGeometry x="-0.675" relative="1" as="geometry">
            <mxPoint y="-7" as="offset" />
          </mxGeometry>
        </mxCell>
        <mxCell id="LkfMRGAHSm8wUyFjsSAr-60" value="*" style="edgeLabel;html=1;align=center;verticalAlign=middle;resizable=0;points=[];" vertex="1" connectable="0" parent="LkfMRGAHSm8wUyFjsSAr-58">
          <mxGeometry x="0.6251" y="-1" relative="1" as="geometry">
            <mxPoint x="5" y="-7" as="offset" />
          </mxGeometry>
        </mxCell>
        <mxCell id="LkfMRGAHSm8wUyFjsSAr-61" style="edgeStyle=orthogonalEdgeStyle;rounded=0;orthogonalLoop=1;jettySize=auto;html=1;entryX=-0.017;entryY=0.154;entryDx=0;entryDy=0;entryPerimeter=0;startArrow=classic;startFill=1;endArrow=none;endFill=0;" edge="1" parent="1" source="LkfMRGAHSm8wUyFjsSAr-49" target="LkfMRGAHSm8wUyFjsSAr-48">
          <mxGeometry relative="1" as="geometry" />
        </mxCell>
        <mxCell id="LkfMRGAHSm8wUyFjsSAr-62" value="1..*" style="edgeLabel;html=1;align=center;verticalAlign=middle;resizable=0;points=[];" vertex="1" connectable="0" parent="LkfMRGAHSm8wUyFjsSAr-61">
          <mxGeometry x="-0.6713" y="2" relative="1" as="geometry">
            <mxPoint x="9" as="offset" />
          </mxGeometry>
        </mxCell>
        <mxCell id="LkfMRGAHSm8wUyFjsSAr-63" value="1" style="edgeLabel;html=1;align=center;verticalAlign=middle;resizable=0;points=[];" vertex="1" connectable="0" parent="LkfMRGAHSm8wUyFjsSAr-61">
          <mxGeometry x="0.703" y="2" relative="1" as="geometry">
            <mxPoint as="offset" />
          </mxGeometry>
        </mxCell>
        <mxCell id="LkfMRGAHSm8wUyFjsSAr-66" value="Country" style="swimlane;fontStyle=0;childLayout=stackLayout;horizontal=1;startSize=26;fillColor=none;horizontalStack=0;resizeParent=1;resizeParentMax=0;resizeLast=0;collapsible=1;marginBottom=0;whiteSpace=wrap;html=1;" vertex="1" parent="1">
          <mxGeometry x="90" y="-83" width="140" height="52" as="geometry" />
        </mxCell>
        <mxCell id="LkfMRGAHSm8wUyFjsSAr-67" value="+ name: type" style="text;strokeColor=none;fillColor=none;align=left;verticalAlign=top;spacingLeft=4;spacingRight=4;overflow=hidden;rotatable=0;points=[[0,0.5],[1,0.5]];portConstraint=eastwest;whiteSpace=wrap;html=1;" vertex="1" parent="LkfMRGAHSm8wUyFjsSAr-66">
          <mxGeometry y="26" width="140" height="26" as="geometry" />
        </mxCell>
        <mxCell id="LkfMRGAHSm8wUyFjsSAr-70" style="rounded=0;orthogonalLoop=1;jettySize=auto;html=1;entryX=0.5;entryY=1.154;entryDx=0;entryDy=0;entryPerimeter=0;startArrow=classic;startFill=1;endArrow=none;endFill=0;" edge="1" parent="1" source="LkfMRGAHSm8wUyFjsSAr-66" target="LkfMRGAHSm8wUyFjsSAr-65">
          <mxGeometry relative="1" as="geometry" />
        </mxCell>
        <mxCell id="LkfMRGAHSm8wUyFjsSAr-71" value="1" style="edgeLabel;html=1;align=center;verticalAlign=middle;resizable=0;points=[];" vertex="1" connectable="0" parent="LkfMRGAHSm8wUyFjsSAr-70">
          <mxGeometry x="-0.5172" y="-2" relative="1" as="geometry">
            <mxPoint x="6" y="-3" as="offset" />
          </mxGeometry>
        </mxCell>
        <mxCell id="LkfMRGAHSm8wUyFjsSAr-72" value="*" style="edgeLabel;html=1;align=center;verticalAlign=middle;resizable=0;points=[];" vertex="1" connectable="0" parent="LkfMRGAHSm8wUyFjsSAr-70">
          <mxGeometry x="0.5863" y="-3" relative="1" as="geometry">
            <mxPoint x="4" as="offset" />
          </mxGeometry>
        </mxCell>
        <mxCell id="LkfMRGAHSm8wUyFjsSAr-76" value="User" style="swimlane;fontStyle=0;childLayout=stackLayout;horizontal=1;startSize=26;fillColor=none;horizontalStack=0;resizeParent=1;resizeParentMax=0;resizeLast=0;collapsible=1;marginBottom=0;whiteSpace=wrap;html=1;" vertex="1" parent="1">
          <mxGeometry x="605" y="-390" width="140" height="104" as="geometry" />
        </mxCell>
        <mxCell id="LkfMRGAHSm8wUyFjsSAr-77" value="+ userName: String" style="text;strokeColor=none;fillColor=none;align=left;verticalAlign=top;spacingLeft=4;spacingRight=4;overflow=hidden;rotatable=0;points=[[0,0.5],[1,0.5]];portConstraint=eastwest;whiteSpace=wrap;html=1;" vertex="1" parent="LkfMRGAHSm8wUyFjsSAr-76">
          <mxGeometry y="26" width="140" height="26" as="geometry" />
        </mxCell>
        <mxCell id="LkfMRGAHSm8wUyFjsSAr-83" value="+ type: admin/client" style="text;strokeColor=none;fillColor=none;align=left;verticalAlign=top;spacingLeft=4;spacingRight=4;overflow=hidden;rotatable=0;points=[[0,0.5],[1,0.5]];portConstraint=eastwest;whiteSpace=wrap;html=1;" vertex="1" parent="LkfMRGAHSm8wUyFjsSAr-76">
          <mxGeometry y="52" width="140" height="26" as="geometry" />
        </mxCell>
        <mxCell id="LkfMRGAHSm8wUyFjsSAr-78" value="+ customer: Customer" style="text;strokeColor=none;fillColor=none;align=left;verticalAlign=top;spacingLeft=4;spacingRight=4;overflow=hidden;rotatable=0;points=[[0,0.5],[1,0.5]];portConstraint=eastwest;whiteSpace=wrap;html=1;" vertex="1" parent="LkfMRGAHSm8wUyFjsSAr-76">
          <mxGeometry y="78" width="140" height="26" as="geometry" />
        </mxCell>
      </root>
    </mxGraphModel>
  </diagram>
  <diagram id="LiAfMG2R6Zrot60q_ZUc" name="highlevel">
    <mxGraphModel dx="1716" dy="570" grid="1" gridSize="10" guides="1" tooltips="1" connect="1" arrows="1" fold="1" page="1" pageScale="1" pageWidth="850" pageHeight="1100" math="0" shadow="0">
      <root>
        <mxCell id="0" />
        <mxCell id="1" parent="0" />
        <mxCell id="AffHPNMEbPiksn4R9sZq-13" style="rounded=0;orthogonalLoop=1;jettySize=auto;html=1;entryX=0;entryY=1;entryDx=0;entryDy=0;strokeWidth=4;startArrow=classic;startFill=1;" edge="1" parent="1" source="z1ZEhS3sixmYBioiUJgC-1" target="AffHPNMEbPiksn4R9sZq-8">
          <mxGeometry relative="1" as="geometry" />
        </mxCell>
        <mxCell id="z1ZEhS3sixmYBioiUJgC-1" value="Springboot" style="swimlane;whiteSpace=wrap;html=1;" vertex="1" parent="1">
          <mxGeometry x="150" y="90" width="540" height="310" as="geometry" />
        </mxCell>
        <mxCell id="AffHPNMEbPiksn4R9sZq-14" value="" style="edgeStyle=orthogonalEdgeStyle;rounded=0;orthogonalLoop=1;jettySize=auto;html=1;strokeWidth=3;" edge="1" parent="z1ZEhS3sixmYBioiUJgC-1" source="z1ZEhS3sixmYBioiUJgC-2" target="z1ZEhS3sixmYBioiUJgC-3">
          <mxGeometry relative="1" as="geometry" />
        </mxCell>
        <mxCell id="z1ZEhS3sixmYBioiUJgC-2" value="Controller" style="rounded=1;whiteSpace=wrap;html=1;" vertex="1" parent="z1ZEhS3sixmYBioiUJgC-1">
          <mxGeometry x="20" y="40" width="80" height="240" as="geometry" />
        </mxCell>
        <mxCell id="z1ZEhS3sixmYBioiUJgC-4" value="Domain" style="rounded=1;whiteSpace=wrap;html=1;" vertex="1" parent="z1ZEhS3sixmYBioiUJgC-1">
          <mxGeometry x="250" y="40" width="90" height="60" as="geometry" />
        </mxCell>
        <mxCell id="AffHPNMEbPiksn4R9sZq-15" value="" style="edgeStyle=orthogonalEdgeStyle;rounded=0;orthogonalLoop=1;jettySize=auto;html=1;strokeWidth=3;" edge="1" parent="z1ZEhS3sixmYBioiUJgC-1" source="z1ZEhS3sixmYBioiUJgC-3" target="z1ZEhS3sixmYBioiUJgC-6">
          <mxGeometry relative="1" as="geometry" />
        </mxCell>
        <mxCell id="AffHPNMEbPiksn4R9sZq-16" style="edgeStyle=orthogonalEdgeStyle;rounded=0;orthogonalLoop=1;jettySize=auto;html=1;strokeWidth=3;" edge="1" parent="z1ZEhS3sixmYBioiUJgC-1" source="z1ZEhS3sixmYBioiUJgC-3" target="z1ZEhS3sixmYBioiUJgC-4">
          <mxGeometry relative="1" as="geometry" />
        </mxCell>
        <mxCell id="z1ZEhS3sixmYBioiUJgC-3" value="Service" style="rounded=1;whiteSpace=wrap;html=1;" vertex="1" parent="z1ZEhS3sixmYBioiUJgC-1">
          <mxGeometry x="130" y="40" width="70" height="240" as="geometry" />
        </mxCell>
        <mxCell id="AffHPNMEbPiksn4R9sZq-17" style="edgeStyle=orthogonalEdgeStyle;rounded=0;orthogonalLoop=1;jettySize=auto;html=1;strokeWidth=3;" edge="1" parent="z1ZEhS3sixmYBioiUJgC-1" source="z1ZEhS3sixmYBioiUJgC-6" target="z1ZEhS3sixmYBioiUJgC-4">
          <mxGeometry relative="1" as="geometry" />
        </mxCell>
        <mxCell id="AffHPNMEbPiksn4R9sZq-18" value="" style="edgeStyle=orthogonalEdgeStyle;rounded=0;orthogonalLoop=1;jettySize=auto;html=1;entryX=0;entryY=0.5;entryDx=0;entryDy=0;strokeWidth=3;" edge="1" parent="z1ZEhS3sixmYBioiUJgC-1" source="z1ZEhS3sixmYBioiUJgC-6" target="AffHPNMEbPiksn4R9sZq-1">
          <mxGeometry relative="1" as="geometry" />
        </mxCell>
        <mxCell id="z1ZEhS3sixmYBioiUJgC-6" value="Repository" style="rounded=1;whiteSpace=wrap;html=1;" vertex="1" parent="z1ZEhS3sixmYBioiUJgC-1">
          <mxGeometry x="250" y="120" width="90" height="160" as="geometry" />
        </mxCell>
        <mxCell id="AffHPNMEbPiksn4R9sZq-1" value="Integration" style="swimlane;whiteSpace=wrap;html=1;" vertex="1" parent="z1ZEhS3sixmYBioiUJgC-1">
          <mxGeometry x="390" y="40" width="115" height="240" as="geometry" />
        </mxCell>
        <mxCell id="AffHPNMEbPiksn4R9sZq-2" value="Scheduler" style="rounded=1;whiteSpace=wrap;html=1;" vertex="1" parent="AffHPNMEbPiksn4R9sZq-1">
          <mxGeometry x="10" y="30" width="90" height="40" as="geometry" />
        </mxCell>
        <mxCell id="AffHPNMEbPiksn4R9sZq-3" value="Kafka" style="rounded=1;whiteSpace=wrap;html=1;" vertex="1" parent="AffHPNMEbPiksn4R9sZq-1">
          <mxGeometry x="8.5" y="85" width="95" height="45" as="geometry" />
        </mxCell>
        <mxCell id="AffHPNMEbPiksn4R9sZq-4" value="emailSender" style="rounded=1;whiteSpace=wrap;html=1;" vertex="1" parent="AffHPNMEbPiksn4R9sZq-1">
          <mxGeometry x="10" y="143" width="95" height="45" as="geometry" />
        </mxCell>
        <mxCell id="AffHPNMEbPiksn4R9sZq-12" value="Backing Service" style="swimlane;whiteSpace=wrap;html=1;" vertex="1" parent="1">
          <mxGeometry x="771" y="88" width="140" height="310" as="geometry" />
        </mxCell>
        <mxCell id="AffHPNMEbPiksn4R9sZq-11" value="" style="group" vertex="1" connectable="0" parent="AffHPNMEbPiksn4R9sZq-12">
          <mxGeometry y="20" width="140" height="140" as="geometry" />
        </mxCell>
        <mxCell id="AffHPNMEbPiksn4R9sZq-8" value="&lt;img loading=&quot;lazy&quot; class=&quot;wp-image-29172 alignright&quot; src=&quot;https://cdn.confluent.io/wp-content/uploads/kafka-icon-blue.jpg&quot; alt=&quot;Apache Kafka&quot; width=&quot;95&quot; height=&quot;95&quot; srcset=&quot;https://cdn.confluent.io/wp-content/uploads/kafka-icon-blue.jpg 600w, https://cdn.confluent.io/wp-content/uploads/kafka-icon-blue-300x300.jpg 300w, https://cdn.confluent.io/wp-content/uploads/kafka-icon-blue-150x150.jpg 150w, https://cdn.confluent.io/wp-content/uploads/kafka-icon-blue-262x262.jpg 262w, https://cdn.confluent.io/wp-content/uploads/kafka-icon-blue-32x32.jpg 32w, https://cdn.confluent.io/wp-content/uploads/kafka-icon-blue-50x50.jpg 50w, https://cdn.confluent.io/wp-content/uploads/kafka-icon-blue-64x64.jpg 64w, https://cdn.confluent.io/wp-content/uploads/kafka-icon-blue-96x96.jpg 96w, https://cdn.confluent.io/wp-content/uploads/kafka-icon-blue-128x128.jpg 128w, https://cdn.confluent.io/wp-content/uploads/kafka-icon-blue-100x100.jpg 100w&quot; sizes=&quot;(max-width: 95px) 100vw, 95px&quot; style=&quot;box-sizing: border-box; border: 0px; outline: 0px; vertical-align: middle; height: auto; max-width: 100%; width: auto; display: block; margin: 10px auto 10px 10px; float: right; caret-color: rgb(0, 0, 0); color: rgb(0, 0, 0); font-family: MarkPro-NarrowBook, Arial, sans-serif; font-size: 16px; font-style: normal; font-variant-caps: normal; font-weight: 300; letter-spacing: normal; text-align: left; text-indent: 0px; text-transform: none; word-spacing: 0px; -webkit-text-stroke-width: 0px; text-decoration: none;&quot;&gt;&lt;span style=&quot;caret-color: rgb(0, 0, 0); color: rgb(0, 0, 0); font-family: MarkPro-NarrowBook, Arial, sans-serif; font-size: 16px; font-style: normal; font-variant-caps: normal; font-weight: 300; letter-spacing: normal; text-align: left; text-indent: 0px; text-transform: none; word-spacing: 0px; -webkit-text-stroke-width: 0px; background-color: rgb(255, 255, 255); text-decoration: none; float: none; display: inline !important;&quot;&gt;&lt;/span&gt;&lt;br class=&quot;Apple-interchange-newline&quot;&gt;" style="text;whiteSpace=wrap;html=1;" vertex="1" parent="AffHPNMEbPiksn4R9sZq-11">
          <mxGeometry width="140" height="140" as="geometry" />
        </mxCell>
        <mxCell id="AffHPNMEbPiksn4R9sZq-9" value="Kafka" style="text;html=1;strokeColor=none;fillColor=none;align=center;verticalAlign=middle;whiteSpace=wrap;rounded=0;" vertex="1" parent="AffHPNMEbPiksn4R9sZq-11">
          <mxGeometry x="30" y="110" width="60" height="30" as="geometry" />
        </mxCell>
        <mxCell id="AffHPNMEbPiksn4R9sZq-5" value="MySQL" style="shape=cylinder3;whiteSpace=wrap;html=1;boundedLbl=1;backgroundOutline=1;size=15;" vertex="1" parent="AffHPNMEbPiksn4R9sZq-12">
          <mxGeometry x="30" y="198" width="60" height="80" as="geometry" />
        </mxCell>
        <mxCell id="AffHPNMEbPiksn4R9sZq-20" style="edgeStyle=orthogonalEdgeStyle;rounded=0;orthogonalLoop=1;jettySize=auto;html=1;entryX=0;entryY=0.5;entryDx=0;entryDy=0;" edge="1" parent="1" source="AffHPNMEbPiksn4R9sZq-19" target="z1ZEhS3sixmYBioiUJgC-1">
          <mxGeometry relative="1" as="geometry" />
        </mxCell>
        <mxCell id="AffHPNMEbPiksn4R9sZq-19" value="Actor" style="shape=umlActor;verticalLabelPosition=bottom;verticalAlign=top;html=1;outlineConnect=0;" vertex="1" parent="1">
          <mxGeometry x="-17" y="215" width="30" height="60" as="geometry" />
        </mxCell>
        <mxCell id="AffHPNMEbPiksn4R9sZq-21" value="Azure Active directory" style="verticalLabelPosition=bottom;html=1;verticalAlign=top;align=center;strokeColor=none;fillColor=#00BEF2;shape=mxgraph.azure.azure_active_directory;" vertex="1" parent="1">
          <mxGeometry x="45" y="50" width="47.5" height="50" as="geometry" />
        </mxCell>
        <mxCell id="AffHPNMEbPiksn4R9sZq-22" style="rounded=0;orthogonalLoop=1;jettySize=auto;html=1;" edge="1" parent="1" source="z1ZEhS3sixmYBioiUJgC-2" target="AffHPNMEbPiksn4R9sZq-21">
          <mxGeometry relative="1" as="geometry" />
        </mxCell>
      </root>
    </mxGraphModel>
  </diagram>
  <diagram id="KxIrF8UdB2Z_E1jAVdVA" name="makeReservation">
    <mxGraphModel dx="866" dy="570" grid="1" gridSize="10" guides="1" tooltips="1" connect="1" arrows="1" fold="1" page="1" pageScale="1" pageWidth="850" pageHeight="1100" math="0" shadow="0">
      <root>
        <mxCell id="0" />
        <mxCell id="1" parent="0" />
        <mxCell id="DiCvWdKkcFgQaVa3Mice-2" value="Controller" style="shape=umlLifeline;perimeter=lifelinePerimeter;whiteSpace=wrap;html=1;container=1;dropTarget=0;collapsible=0;recursiveResize=0;outlineConnect=0;portConstraint=eastwest;newEdgeStyle={&quot;edgeStyle&quot;:&quot;elbowEdgeStyle&quot;,&quot;elbow&quot;:&quot;vertical&quot;,&quot;curved&quot;:0,&quot;rounded&quot;:0};" vertex="1" parent="1">
          <mxGeometry x="310" y="490" width="100" height="300" as="geometry" />
        </mxCell>
        <mxCell id="DiCvWdKkcFgQaVa3Mice-8" value="" style="html=1;points=[[0,0,0,0,5],[0,1,0,0,-5],[1,0,0,0,5],[1,1,0,0,-5]];perimeter=orthogonalPerimeter;outlineConnect=0;targetShapes=umlLifeline;portConstraint=eastwest;newEdgeStyle={&quot;curved&quot;:0,&quot;rounded&quot;:0};" vertex="1" parent="DiCvWdKkcFgQaVa3Mice-2">
          <mxGeometry x="45" y="70" width="10" height="110" as="geometry" />
        </mxCell>
        <mxCell id="DiCvWdKkcFgQaVa3Mice-3" value="Kafka" style="shape=umlLifeline;perimeter=lifelinePerimeter;whiteSpace=wrap;html=1;container=1;dropTarget=0;collapsible=0;recursiveResize=0;outlineConnect=0;portConstraint=eastwest;newEdgeStyle={&quot;edgeStyle&quot;:&quot;elbowEdgeStyle&quot;,&quot;elbow&quot;:&quot;vertical&quot;,&quot;curved&quot;:0,&quot;rounded&quot;:0};" vertex="1" parent="1">
          <mxGeometry x="430" y="490" width="100" height="300" as="geometry" />
        </mxCell>
        <mxCell id="DiCvWdKkcFgQaVa3Mice-11" value="" style="html=1;points=[[0,0,0,0,5],[0,1,0,0,-5],[1,0,0,0,5],[1,1,0,0,-5]];perimeter=orthogonalPerimeter;outlineConnect=0;targetShapes=umlLifeline;portConstraint=eastwest;newEdgeStyle={&quot;curved&quot;:0,&quot;rounded&quot;:0};" vertex="1" parent="DiCvWdKkcFgQaVa3Mice-3">
          <mxGeometry x="45" y="90" width="10" height="80" as="geometry" />
        </mxCell>
        <mxCell id="DiCvWdKkcFgQaVa3Mice-7" value="" style="shape=umlLifeline;perimeter=lifelinePerimeter;whiteSpace=wrap;html=1;container=1;dropTarget=0;collapsible=0;recursiveResize=0;outlineConnect=0;portConstraint=eastwest;newEdgeStyle={&quot;curved&quot;:0,&quot;rounded&quot;:0};participant=umlActor;" vertex="1" parent="1">
          <mxGeometry x="220" y="490" width="20" height="300" as="geometry" />
        </mxCell>
        <mxCell id="DiCvWdKkcFgQaVa3Mice-9" value="dispatch" style="html=1;verticalAlign=bottom;startArrow=oval;endArrow=block;startSize=8;curved=0;rounded=0;entryX=0;entryY=0;entryDx=0;entryDy=5;" edge="1" target="DiCvWdKkcFgQaVa3Mice-8" parent="1" source="DiCvWdKkcFgQaVa3Mice-7">
          <mxGeometry relative="1" as="geometry">
            <mxPoint x="280" y="565" as="sourcePoint" />
          </mxGeometry>
        </mxCell>
        <mxCell id="DiCvWdKkcFgQaVa3Mice-12" value="producer.send" style="html=1;verticalAlign=bottom;endArrow=block;curved=0;rounded=0;entryX=0;entryY=0;entryDx=0;entryDy=5;" edge="1" target="DiCvWdKkcFgQaVa3Mice-11" parent="1">
          <mxGeometry relative="1" as="geometry">
            <mxPoint x="370" y="585" as="sourcePoint" />
          </mxGeometry>
        </mxCell>
        <mxCell id="DiCvWdKkcFgQaVa3Mice-13" value="202 Accepted" style="html=1;verticalAlign=bottom;endArrow=open;dashed=1;endSize=8;curved=0;rounded=0;exitX=0;exitY=1;exitDx=0;exitDy=-5;" edge="1" source="DiCvWdKkcFgQaVa3Mice-11" parent="1" target="DiCvWdKkcFgQaVa3Mice-2">
          <mxGeometry relative="1" as="geometry">
            <mxPoint x="405" y="655" as="targetPoint" />
          </mxGeometry>
        </mxCell>
      </root>
    </mxGraphModel>
  </diagram>
  <diagram id="sndBCCt0q_VtqBwb4tMI" name="ReservationConsumer">
    <mxGraphModel dx="866" dy="570" grid="1" gridSize="10" guides="1" tooltips="1" connect="1" arrows="1" fold="1" page="1" pageScale="1" pageWidth="850" pageHeight="1100" math="0" shadow="0">
      <root>
        <mxCell id="0" />
        <mxCell id="1" parent="0" />
        <mxCell id="4-GpOWqu9OkTJysYVDy9-1" value="Comsumer" style="shape=umlLifeline;perimeter=lifelinePerimeter;whiteSpace=wrap;html=1;container=1;dropTarget=0;collapsible=0;recursiveResize=0;outlineConnect=0;portConstraint=eastwest;newEdgeStyle={&quot;curved&quot;:0,&quot;rounded&quot;:0};" vertex="1" parent="1">
          <mxGeometry x="220" y="360" width="100" height="300" as="geometry" />
        </mxCell>
        <mxCell id="4-GpOWqu9OkTJysYVDy9-2" value="Service" style="shape=umlLifeline;perimeter=lifelinePerimeter;whiteSpace=wrap;html=1;container=1;dropTarget=0;collapsible=0;recursiveResize=0;outlineConnect=0;portConstraint=eastwest;newEdgeStyle={&quot;curved&quot;:0,&quot;rounded&quot;:0};" vertex="1" parent="1">
          <mxGeometry x="356" y="360" width="100" height="300" as="geometry" />
        </mxCell>
        <mxCell id="4-GpOWqu9OkTJysYVDy9-4" value="" style="html=1;points=[[0,0,0,0,5],[0,1,0,0,-5],[1,0,0,0,5],[1,1,0,0,-5]];perimeter=orthogonalPerimeter;outlineConnect=0;targetShapes=umlLifeline;portConstraint=eastwest;newEdgeStyle={&quot;curved&quot;:0,&quot;rounded&quot;:0};" vertex="1" parent="4-GpOWqu9OkTJysYVDy9-2">
          <mxGeometry x="45" y="70" width="10" height="190" as="geometry" />
        </mxCell>
        <mxCell id="4-GpOWqu9OkTJysYVDy9-3" value="Repository" style="shape=umlLifeline;perimeter=lifelinePerimeter;whiteSpace=wrap;html=1;container=1;dropTarget=0;collapsible=0;recursiveResize=0;outlineConnect=0;portConstraint=eastwest;newEdgeStyle={&quot;curved&quot;:0,&quot;rounded&quot;:0};" vertex="1" parent="1">
          <mxGeometry x="480" y="360" width="100" height="300" as="geometry" />
        </mxCell>
        <mxCell id="4-GpOWqu9OkTJysYVDy9-6" value="" style="html=1;points=[[0,0,0,0,5],[0,1,0,0,-5],[1,0,0,0,5],[1,1,0,0,-5]];perimeter=orthogonalPerimeter;outlineConnect=0;targetShapes=umlLifeline;portConstraint=eastwest;newEdgeStyle={&quot;curved&quot;:0,&quot;rounded&quot;:0};" vertex="1" parent="4-GpOWqu9OkTJysYVDy9-3">
          <mxGeometry x="45" y="80" width="10" height="80" as="geometry" />
        </mxCell>
        <mxCell id="4-GpOWqu9OkTJysYVDy9-5" value="dispatch" style="html=1;verticalAlign=bottom;startArrow=oval;endArrow=block;startSize=8;curved=0;rounded=0;entryX=0;entryY=0;entryDx=0;entryDy=5;" edge="1" target="4-GpOWqu9OkTJysYVDy9-4" parent="1" source="4-GpOWqu9OkTJysYVDy9-1">
          <mxGeometry relative="1" as="geometry">
            <mxPoint x="335" y="435" as="sourcePoint" />
          </mxGeometry>
        </mxCell>
        <mxCell id="4-GpOWqu9OkTJysYVDy9-7" value="dispatch" style="html=1;verticalAlign=bottom;endArrow=block;curved=0;rounded=0;entryX=0;entryY=0;entryDx=0;entryDy=5;" edge="1" target="4-GpOWqu9OkTJysYVDy9-6" parent="1">
          <mxGeometry relative="1" as="geometry">
            <mxPoint x="420" y="445" as="sourcePoint" />
          </mxGeometry>
        </mxCell>
        <mxCell id="4-GpOWqu9OkTJysYVDy9-8" value="return" style="html=1;verticalAlign=bottom;endArrow=open;dashed=1;endSize=8;curved=0;rounded=0;exitX=0;exitY=1;exitDx=0;exitDy=-5;" edge="1" source="4-GpOWqu9OkTJysYVDy9-6" parent="1" target="4-GpOWqu9OkTJysYVDy9-2">
          <mxGeometry relative="1" as="geometry">
            <mxPoint x="455" y="515" as="targetPoint" />
          </mxGeometry>
        </mxCell>
        <mxCell id="4-GpOWqu9OkTJysYVDy9-9" value="Email Sender" style="shape=umlLifeline;perimeter=lifelinePerimeter;whiteSpace=wrap;html=1;container=1;dropTarget=0;collapsible=0;recursiveResize=0;outlineConnect=0;portConstraint=eastwest;newEdgeStyle={&quot;curved&quot;:0,&quot;rounded&quot;:0};" vertex="1" parent="1">
          <mxGeometry x="621" y="360" width="100" height="300" as="geometry" />
        </mxCell>
        <mxCell id="4-GpOWqu9OkTJysYVDy9-10" value="" style="html=1;points=[[0,0,0,0,5],[0,1,0,0,-5],[1,0,0,0,5],[1,1,0,0,-5]];perimeter=orthogonalPerimeter;outlineConnect=0;targetShapes=umlLifeline;portConstraint=eastwest;newEdgeStyle={&quot;curved&quot;:0,&quot;rounded&quot;:0};" vertex="1" parent="4-GpOWqu9OkTJysYVDy9-9">
          <mxGeometry x="46" y="167" width="10" height="73" as="geometry" />
        </mxCell>
        <mxCell id="4-GpOWqu9OkTJysYVDy9-11" value="dispatch" style="html=1;verticalAlign=bottom;startArrow=oval;endArrow=block;startSize=8;curved=0;rounded=0;entryX=0;entryY=0;entryDx=0;entryDy=5;" edge="1" target="4-GpOWqu9OkTJysYVDy9-10" parent="1">
          <mxGeometry relative="1" as="geometry">
            <mxPoint x="420" y="532" as="sourcePoint" />
          </mxGeometry>
        </mxCell>
        <mxCell id="4-GpOWqu9OkTJysYVDy9-13" value="Send Email" style="html=1;align=left;spacingLeft=2;endArrow=block;rounded=0;edgeStyle=orthogonalEdgeStyle;curved=0;rounded=0;" edge="1" parent="1">
          <mxGeometry relative="1" as="geometry">
            <mxPoint x="678" y="560" as="sourcePoint" />
            <Array as="points">
              <mxPoint x="708" y="590" />
            </Array>
            <mxPoint x="683" y="590" as="targetPoint" />
          </mxGeometry>
        </mxCell>
      </root>
    </mxGraphModel>
  </diagram>
</mxfile>
